# xmcd
#
# Track frame offsets:
#	150
#	10165
#	21900
#	33312
#	43245
#	52321
#	62555
#	74786
#	82681
#	93830
#	104948
#	114728
#	124108
#	132581
#
# Disc length: 2003 seconds
#
# Revision: 2
# Processed by: cddbd v1.5.2PL0 Copyright (c) Steve Scherf et al.
# Submitted via: EasyCDDAExtractor 12.0.1.1
#
DISCID=cd07d10e
DTITLE=VA - Norwegian Country Fest - Norwegian Country Fest - CD2
DYEAR=1993
DGENRE=Country
TTITLE0=Lillian Askeland - Jambalaya
TTITLE1=Ottar 'Big Hand' Johansen and Lillian Askeland - Kun en gylden ring med 
TTITLE1=3 små ømme ord [I Can't Help It]
TTITLE2=Rita Engebretsen - Ekte Texas-skreppe [California Okie]
TTITLE3=Bjøro Håland - Si han må gå [He'll Have To Go]
TTITLE4=Gro Anita Schonn - Bare du synes om meg [Just As Long As You Love Me]
TTITLE5=Country Snakes - Steel Guitar Rag (instr.)
TTITLE6=Ottar 'Big Hand' Johansen - Mitt liv er Country Music [Bright Lights A
TTITLE6=nd Country Music]
TTITLE7=Bjøro Håland and Rita Engebretsen - Billy Boy
TTITLE8=Ottar 'Big Hand' Johansen - Fire timer igjen [The Snakes Crawl At Nigh
TTITLE8=t
TTITLE9=Rita Engebretsen - Det hender i blant [Everybody's Somebody's Fool]
TTITLE10=Lillian Askeland and Ottar 'Big Hand' Johansen - Nå er det over [Cryin'
TTITLE10=Time]
TTITLE11=Bjøro Håland - Vis deg på byen en kveld [Stand At Your Window]
TTITLE12=Lillian Askeland - Tennessee Waltz
TTITLE13=Medley
EXTD=Norwegian Country
EXTT0=
EXTT1=
EXTT2=
EXTT3=
EXTT4=
EXTT5=
EXTT6=
EXTT7=
EXTT8=
EXTT9=
EXTT10=
EXTT11=
EXTT12=
EXTT13=
PLAYORDER=
